# xmcd
#
# Track frame offsets: 
#        150
#        12741
#        22207
#        37124
#        46825
#        60521
#        70810
#        83178
#        92139
#        104354
#        113585
#
# Disc length: 1657 seconds
#
# Revision: 0
# Processed by: cddbd v1.5.2PL0 Copyright (c) Steve Scherf et al.
# Submitted via: ExactAudioCopy v1.3
#
DISCID=9006770b
DTITLE=Hank Williams Jr. - Singing My Songs (Johnny Cash)
DYEAR=1970
DGENRE=Country
TTITLE0=Folsom Prison Blues
TTITLE1=Understand Your Man
TTITLE2=I Still Miss Someone
TTITLE3=I Walk The Line
TTITLE4=Give My Love To Rose
TTITLE5=Hey Porter
TTITLE6=Ring Of Fire
TTITLE7=Home Of The Blues
TTITLE8=Tennessee Flat Top Box
TTITLE9=Big River
TTITLE10=Guess Things Happen That Way
EXTD=
EXTT0=
EXTT1=
EXTT2=
EXTT3=
EXTT4=
EXTT5=
EXTT6=
EXTT7=
EXTT8=
EXTT9=
EXTT10=
PLAYORDER=
